<svg width="713" height="677" xmlns="http://www.w3.org/2000/svg" xmlns:xlink="http://www.w3.org/1999/xlink" xml:space="preserve" overflow="hidden"><defs><linearGradient x1="307" y1="573.749" x2="307" y2="40.2511" gradientUnits="userSpaceOnUse" spreadMethod="pad" id="fill0"><stop offset="0" stop-color="#198AB3"/><stop offset="0.09" stop-color="#1F9DC4"/><stop offset="0.24" stop-color="#28B5D9"/><stop offset="0.4" stop-color="#2DC6E9"/><stop offset="0.57" stop-color="#31D1F2"/><stop offset="0.78" stop-color="#32D4F5"/><stop offset="1" stop-color="#32D4F5"/></linearGradient><linearGradient x1="285.169" y1="387.161" x2="285.169" y2="493.247" gradientUnits="userSpaceOnUse" spreadMethod="pad" id="fill1"><stop offset="0" stop-color="#C69AEB"/><stop offset="1" stop-color="#6F4BB2"/></linearGradient></defs><g transform="translate(-274 -1352)"><g><g><g><path d="M956.281 1593.97 936.99 1587.71C931.126 1585.76 925.799 1582.47 921.43 1578.11 917.06 1573.74 913.769 1568.41 911.818 1562.56L905.551 1543.28C905.027 1541.8 904.054 1540.51 902.766 1539.6 901.479 1538.69 899.941 1538.2 898.364 1538.2 896.789 1538.2 895.252 1538.69 893.964 1539.6 892.676 1540.51 891.704 1541.8 891.179 1543.28L884.91 1562.56C883 1568.37 879.769 1573.67 875.47 1578.04 871.168 1582.4 865.916 1585.71 860.125 1587.71L840.835 1593.97C839.348 1594.5 838.06 1595.47 837.151 1596.75 836.241 1598.04 835.75 1599.58 835.75 1601.15 835.75 1602.73 836.241 1604.26 837.151 1605.55 838.06 1606.84 839.348 1607.81 840.835 1608.33L860.125 1614.6C866 1616.55 871.334 1619.86 875.704 1624.24 880.076 1628.62 883.36 1633.97 885.298 1639.84L891.565 1659.12C892.089 1660.61 893.062 1661.89 894.35 1662.8 895.637 1663.71 897.174 1664.2 898.75 1664.2 900.327 1664.2 901.864 1663.71 903.152 1662.8 904.44 1661.89 905.412 1660.61 905.937 1659.12L912.204 1639.84C914.154 1633.99 917.445 1628.66 921.815 1624.29 926.185 1619.93 931.512 1616.64 937.376 1614.69L956.667 1608.43C958.154 1607.9 959.441 1606.93 960.351 1605.65 961.261 1604.36 961.75 1602.82 961.75 1601.25 961.75 1599.67 961.261 1598.14 960.351 1596.85 959.441 1595.56 958.154 1594.59 956.667 1594.07L956.281 1593.97Z" fill="#8D66C6"/></g></g></g><g><g><g><path d="M483.695 200.914C481.093 110.074 405.704 38.3402 314.845 40.2511 242.5 39.5071 177.558 84.4888 152.818 152.477 75.4804 163.143 17.6783 228.933 17.0556 307 20.2059 394.318 93.1035 462.802 180.448 460.5 185.218 460.834 190.005 460.834 194.774 460.5L235.708 460.5C233.221 454.438 231.946 447.95 231.956 441.398L231.956 441.398C232.079 432.652 234.427 424.083 238.778 416.497L191.022 416.497 180.448 416.497C117.337 418.639 64.0439 370.041 60.3767 307 60.9463 250.24 103.33 202.613 159.64 195.457L185.564 191.363 194.092 166.462C212.81 116.112 261.132 82.9418 314.845 83.5722 381.772 82.0273 437.605 134.37 440.374 201.256L440.374 238.778 477.555 243.894C520.638 249.408 553.32 285.418 554.647 328.831 552.996 377.044 513.515 415.32 465.276 415.473L460.159 415.473 457.43 415.473 423.319 415.473C411.165 352.252 355.687 306.664 291.309 307 279.346 305.496 268.429 313.974 266.925 325.937 265.421 337.9 273.899 348.817 285.862 350.321 287.67 350.55 289.5 350.55 291.309 350.321 341.138 353.388 379.049 396.265 375.983 446.095 373.179 491.647 336.861 527.965 291.309 530.769 279.346 529.265 268.429 537.745 266.925 549.707 265.421 561.67 273.899 572.586 285.862 574.09 287.67 574.318 289.5 574.318 291.309 574.09 357.43 573.974 413.536 525.55 423.319 460.159L459.135 460.159C461.397 460.517 463.696 460.517 465.958 460.159 537.895 458.88 595.853 400.771 596.944 328.831 595.737 264.165 547.739 209.951 483.695 200.914Z" fill="url(#fill0)" transform="matrix(1 0 0 1.00163 274 1414)"/><path d="M285.851 387.161C314.863 387.161 338.382 410.68 338.382 439.692L338.382 441.057C338.382 470.069 314.863 493.588 285.851 493.588L284.487 493.588C255.475 493.588 231.956 470.069 231.956 441.057L231.956 439.692C231.956 410.68 255.475 387.161 284.487 387.161Z" fill="url(#fill1)" transform="matrix(1 0 0 1.00163 274 1414)"/></g></g></g><g><g><g><path d="M362.159 7.36675 371.249 35.3146C374.076 43.8112 378.847 51.5321 385.181 57.8635 391.518 64.1948 399.244 68.9622 407.747 71.7865L435.716 80.8696 436.277 81.0095C438.433 81.7692 440.299 83.1786 441.62 85.0432 442.941 86.9078 443.648 89.1357 443.648 91.42 443.648 93.7042 442.941 95.9321 441.62 97.7967 440.299 99.6613 438.433 101.071 436.277 101.83L408.309 110.914C399.805 113.738 392.077 118.506 385.742 124.837 379.405 131.168 374.634 138.889 371.808 147.386L362.717 175.333C361.958 177.488 360.546 179.353 358.682 180.672 356.816 181.992 354.584 182.7 352.298 182.7 350.014 182.7 347.783 181.992 345.916 180.672 345.734 180.542 345.554 180.407 345.379 180.266 343.779 178.982 342.565 177.275 341.881 175.333L332.791 147.386C332.303 145.903 331.755 144.443 331.149 143.01 328.278 136.209 324.118 130.008 318.882 124.758 317.888 123.759 316.857 122.799 315.794 121.88 310.097 116.945 303.47 113.166 296.29 110.774L268.321 101.691C266.165 100.931 264.299 99.5214 262.978 97.6568 261.658 95.7923 260.949 93.5644 260.949 91.2803 260.949 88.9961 261.658 86.7682 262.978 84.9036 264.299 83.039 266.165 81.6296 268.321 80.8696L296.29 71.7865C304.691 68.8886 312.305 64.0883 318.54 57.7611 324.775 51.434 329.46 43.7517 332.232 35.3146L341.32 7.36675C342.082 5.21269 343.492 3.34738 345.358 2.02796 347.224 0.708545 349.453 0 351.739 0 354.026 0 356.255 0.708545 358.121 2.02796 359.987 3.34738 361.399 5.21269 362.159 7.36675Z" fill="#8D66C6" transform="matrix(1.00192 0 0 1 433 1352)"/></g></g></g></g></svg>