<svg id="uuid-106f77d7-c7f0-48e2-a39c-4a16a01cef6f" xmlns="http://www.w3.org/2000/svg" width="18" height="18" viewBox="0 0 18 18">
  <defs>
    <linearGradient id="uuid-abe451cb-9f7a-4753-8465-be6756ab4436" x1="9" y1="788.543" x2="9" y2="770.563" gradientTransform="translate(0 791.516) scale(1 -1)" gradientUnits="userSpaceOnUse">
      <stop offset=".22" stop-color="#32d4f5" />
      <stop offset="1" stop-color="#198ab3" />
    </linearGradient>
    <linearGradient id="uuid-2ecf1866-3ce4-4116-9c19-e037a65d12c0" x1="8.456" y1="781.318" x2="8.456" y2="784.572" gradientTransform="translate(0 791.516) scale(1 -1)" gradientUnits="userSpaceOnUse">
      <stop offset=".001" stop-color="#773adc" />
      <stop offset="1" stop-color="#b796f9" />
    </linearGradient>
  </defs>
  <path d="M16.617,3.069v2.776c0,.375-.305,.68-.68,.68s-.68-.305-.68-.68V3.314c-2.309-.102-3.2-.723-3.922-1.225-.606-.422-1.044-.727-2.335-.727s-1.729,.305-2.335,.727c-.723,.503-1.617,1.125-3.922,1.224V7.885h5.713c.375,0,.68,.305,.68,.68s-.305,.68-.68,.68H2.065c-.375,0-.68-.304-.68-.68l-.002-5.498c0-.298,.116-.577,.328-.787,.206-.206,.484-.321,.78-.321,2.056-.054,2.738-.529,3.397-.989,.686-.477,1.394-.971,3.112-.971s2.427,.493,3.112,.972c.659,.459,1.342,.934,3.416,.989,.277,0,.555,.115,.764,.324,.207,.206,.324,.484,.324,.784h.001Zm-.68,4.816h-3.333c-.328-2.001-2.056-3.537-4.148-3.537-.375,0-.68,.305-.68,.68s.305,.68,.68,.68c1.575,0,2.857,1.282,2.857,2.857s-1.282,2.857-2.857,2.857c-.375,0-.68,.305-.68,.68s.305,.68,.68,.68c2.093,0,3.821-1.535,4.148-3.537h2.589c-.585,3.628-4.973,6.596-6.189,7.353-.926-.577-4.22-2.773-5.621-5.613-.164-.337-.575-.476-.911-.309-.337,.165-.476,.573-.309,.911,1.599,3.243,5.194,5.604,6.256,6.248,.174,.108,.378,.164,.584,.164s.41-.058,.582-.163c1.625-.989,6.932-4.585,7.031-9.256,.003-.184-.066-.36-.195-.491-.127-.131-.303-.205-.485-.205Z" fill="url(#uuid-abe451cb-9f7a-4753-8465-be6756ab4436)" />
  <path d="M8.456,10.198c.902,0,1.632-.731,1.632-1.632s-.731-1.632-1.632-1.632-1.632,.731-1.632,1.632,.731,1.632,1.632,1.632Z" fill="url(#uuid-2ecf1866-3ce4-4116-9c19-e037a65d12c0)" />
</svg>