<svg xmlns="http://www.w3.org/2000/svg" width="18" height="18" viewBox="0 0 18 18">
  <defs>
    <linearGradient id="aab6b157-e494-421b-ae0e-74146c6a561b" x1="9" y1="17.96" x2="9" y2="10.258" gradientUnits="userSpaceOnUse">
      <stop offset="0" stop-color="#0078d4" />
      <stop offset="0.997" stop-color="#5ea0ef" />
    </linearGradient>
    <linearGradient id="e9914879-1274-4b33-baa8-bb24356cec5d" x1="8.963" y1="9.517" x2="8.963" y2="0.04" gradientUnits="userSpaceOnUse">
      <stop offset="0" stop-color="#76bc2d" />
      <stop offset="0.997" stop-color="#b4ec36" />
    </linearGradient>
    <linearGradient id="e1dc40be-3c60-4f3a-ab27-7ac37421ce96" x1="8.963" y1="9.517" x2="8.963" y2="0.04" gradientUnits="userSpaceOnUse">
      <stop offset="0" stop-color="#76bc2d" />
      <stop offset="0.997" stop-color="#76bc2d" />
    </linearGradient>
  </defs>
  <g id="b9c9153a-8af1-49a4-bae3-f11a1603e5af">
    <rect y="10.258" width="18" height="7.702" rx="0.601" fill="url(#aab6b157-e494-421b-ae0e-74146c6a561b)" />
    <path d="M2.224.04H5.433a.6.6,0,0,1,.6.6V3.845a.6.6,0,0,1-.6.6H2.224a.6.6,0,0,1-.6-.6V.636A.6.6,0,0,1,2.224.04Zm5.135,0h3.209a.6.6,0,0,1,.6.6V3.845a.6.6,0,0,1-.6.6H7.359a.6.6,0,0,1-.6-.6V.636A.6.6,0,0,1,7.359.04Zm5.134,5.135H15.7a.6.6,0,0,1,.6.6v3.15a.6.6,0,0,1-.6.6H12.493a.6.6,0,0,1-.6-.6V5.771A.6.6,0,0,1,12.493,5.175Z" fill="url(#e9914879-1274-4b33-baa8-bb24356cec5d)" />
    <path d="M2.224,5.175H5.433a.6.6,0,0,1,.6.6v3.15a.6.6,0,0,1-.6.6H2.224a.6.6,0,0,1-.6-.6V5.771A.6.6,0,0,1,2.224,5.175Zm5.135,0h3.209a.6.6,0,0,1,.6.6v3.15a.6.6,0,0,1-.6.6H7.359a.6.6,0,0,1-.6-.6V5.771A.6.6,0,0,1,7.359,5.175ZM12.493.04H15.7a.6.6,0,0,1,.6.6V3.845a.6.6,0,0,1-.6.6H12.493a.6.6,0,0,1-.6-.6V.636A.6.6,0,0,1,12.493.04Z" fill="url(#e1dc40be-3c60-4f3a-ab27-7ac37421ce96)" />
    <rect x="6.029" y="12.092" width="5.868" height="1.1" rx="0.55" fill="#e6e6e6" />
  </g>
  <metadata>
    <rdf:RDF xmlns:rdf="http://www.w3.org/1999/02/22-rdf-syntax-ns#">
      <rdf:li>public:true</rdf:li>
      <rdf:li>sdk:false</rdf:li>
      <rdf:li>category:Cost Management</rdf:li>
    </rdf:RDF>
  </metadata>
</svg>